<?xml version="1.0" encoding="UTF-8"?>
<svg id="Calque_1" data-name="Calque 1" xmlns="http://www.w3.org/2000/svg" viewBox="0 0 160 160">
  <defs>
    <style>
      .cls-1 {
        fill: #fff;
      }
    </style>
  </defs>
  <g>
    <path class="cls-1" d="M17.75,68.94h9.51c6.06,0,10.17,3.91,10.17,9.35s-4.11,9.31-10.17,9.31h-1.02l-1.33-4.77h2.35c3.21,0,5.09-1.88,5.09-4.54s-1.88-4.58-5.09-4.58h-4.42v21.71h-5.09v-26.49Z"/>
    <path class="cls-1" d="M39.65,68.94h4.89v9.04c.94-1.06,2.5-1.92,4.69-1.92,3.99,0,7.43,2.97,7.43,8.57v10.8h-4.89v-10.6c0-2.54-1.45-4.03-3.56-4.03-2.27,0-3.68,1.49-3.68,4.03v10.6h-4.89v-26.49Z"/>
    <path class="cls-1" d="M58.9,86c0-5.67,4.15-9.94,10.02-9.94s10.05,4.26,10.05,9.94-4.15,9.9-10.05,9.9-10.02-4.26-10.02-9.9ZM68.91,91.12c3.13,0,5.09-2.39,5.09-5.16s-1.96-5.16-5.09-5.16-5.05,2.39-5.05,5.16,1.96,5.16,5.05,5.16Z"/>
    <path class="cls-1" d="M81.39,68.94h10.45c6.49,0,8.65,4.22,8.65,7.24,0,2.39-1.02,4.23-2.58,5.32,2.19,1.29,3.36,3.52,3.36,6.14,0,3.6-2.66,7.79-8.65,7.79h-2.66l-1.37-4.7h3.6c2.46,0,3.95-1.25,3.95-3.25s-1.49-3.25-3.95-3.25h-5.71v11.19h-5.09v-26.49ZM91.72,79.74c2.31,0,3.72-1.13,3.72-3.01s-1.41-3.09-3.72-3.09h-5.24v6.1h5.24Z"/>
    <path class="cls-1" d="M102.98,85.65c0-5.36,3.99-9.55,9.58-9.55,5.56-.04,9.16,3.91,9.16,8.18,0,1.49-.51,3.05-1.33,4.3h-5.09c.86-1.21,1.37-2.39,1.37-3.68,0-2.35-1.76-4.11-4.11-4.11-2.74,0-4.62,2.11-4.62,4.77s2.07,5.2,6.18,5.2h7.55l-1.33,4.66h-6.73c-6.22,0-10.64-4.19-10.64-9.78Z"/>
    <path class="cls-1" d="M123.51,85.65c0-5.36,3.99-9.55,9.58-9.55,5.56-.04,9.15,3.91,9.15,8.18,0,1.49-.51,3.05-1.33,4.3h-5.09c.86-1.21,1.37-2.39,1.37-3.68,0-2.35-1.76-4.11-4.11-4.11-2.74,0-4.62,2.11-4.62,4.77s2.07,5.2,6.18,5.2h7.55l-1.33,4.66h-6.73c-6.22,0-10.64-4.19-10.64-9.78Z"/>
  </g>
  <path class="cls-1" d="M109.47,74.46s-.7-5.41-3.26-7.51c-1.33-1.09-3.29-.49-3.69,1.19s.48,4.15,6.95,6.32Z"/>
  <path class="cls-1" d="M112.27,74.46s4.82-6.97,4.05-12.06c-.4-2.65-3.3-3.98-5.5-2.46-2.2,1.53-3.76,5.28,1.45,14.51Z"/>
</svg>