<?xml version="1.0" encoding="UTF-8"?>
<svg id="Calque_1" data-name="Calque 1" xmlns="http://www.w3.org/2000/svg" xmlns:xlink="http://www.w3.org/1999/xlink" viewBox="0 0 160 160">
  <defs>
    <style>
      .cls-1 {
        fill: #fff;
      }

      .cls-2 {
        fill: url(#Dégradé_sans_nom_14);
      }

      .cls-3 {
        fill: #14233c;
      }

      .cls-4 {
        fill: #ffc82c;
      }
    </style>
    <linearGradient id="Dégradé_sans_nom_14" data-name="Dégradé sans nom 14" x1="80.34" y1="70.91" x2="80.34" y2="20.38" gradientUnits="userSpaceOnUse">
      <stop offset="0" stop-color="#ffc82c"/>
      <stop offset="1" stop-color="#ffc82c"/>
    </linearGradient>
  </defs>
  <rect class="cls-1" x="0" y="0" width="160" height="160"/>
  <rect class="cls-3" x="0" y="0" width="160" height="160"/>
  <path class="cls-1" d="M48.3,108.21c0-17.87,13.3-31.82,31.95-31.82,18.52-.13,30.52,13.04,30.52,27.26,0,4.96-1.7,10.17-4.44,14.35h-16.95c2.87-4.04,4.56-7.96,4.56-12.26,0-7.83-5.87-13.69-13.69-13.69-9.13,0-15.39,7.04-15.39,15.91s6.91,17.35,20.61,17.35h25.17l-4.43,15.52h-22.43c-20.74,0-35.47-13.96-35.47-32.61Z"/>
  <path class="cls-4" d="M46.77,49.83c-1.32,5.6,1.6,13.83,23.16,21.07,0,0-2.33-18.05-10.86-25.05-4.44-3.65-10.98-1.62-12.3,3.98"/>
  <path class="cls-2" d="M79.28,70.91s16.07-23.25,13.51-40.19c-1.34-8.82-10.99-13.28-18.33-8.19-7.34,5.09-12.53,17.61,4.82,48.38Z"/>
</svg>